<?xml version="1.0" encoding="UTF-8" standalone="no"?>
<!DOCTYPE svg PUBLIC "-//W3C//DTD SVG 1.1//EN"
 "http://www.w3.org/Graphics/SVG/1.1/DTD/svg11.dtd">
<!-- Generated by graphviz version 2.34.0 (20170829.0158)
 -->
<!-- Title: G Pages: 1 -->
<svg width="1076pt" height="2207pt"
 viewBox="0.00 0.00 1076.00 2207.00" xmlns="http://www.w3.org/2000/svg" xmlns:xlink="http://www.w3.org/1999/xlink">
<g id="graph0" class="graph" transform="scale(1 1) rotate(0) translate(4 2203)">
<title>G</title>
<polygon fill="white" stroke="white" points="-4,4 -4,-2203 1072,-2203 1072,4 -4,4"/>
<g id="clust1" class="cluster"><title>cluster_Global</title>
<path fill="none" stroke="gray" d="M20,-152C20,-152 1048,-152 1048,-152 1054,-152 1060,-158 1060,-164 1060,-164 1060,-2179 1060,-2179 1060,-2185 1054,-2191 1048,-2191 1048,-2191 20,-2191 20,-2191 14,-2191 8,-2185 8,-2179 8,-2179 8,-164 8,-164 8,-158 14,-152 20,-152"/>
<text text-anchor="middle" x="534" y="-2177.1" font-family="Times,serif" font-size="11.00" fill="gray">Global</text>
</g>
<g id="clust2" class="cluster"><title>cluster_\PG</title>
<path fill="none" stroke="gray" d="M28,-160C28,-160 1040,-160 1040,-160 1046,-160 1052,-166 1052,-172 1052,-172 1052,-2150 1052,-2150 1052,-2156 1046,-2162 1040,-2162 1040,-2162 28,-2162 28,-2162 22,-2162 16,-2156 16,-2150 16,-2150 16,-172 16,-172 16,-166 22,-160 28,-160"/>
<text text-anchor="middle" x="534" y="-2148.1" font-family="Times,serif" font-size="11.00" fill="gray">PG</text>
</g>
<g id="clust3" class="cluster"><title>cluster_\PG\MSF</title>
<path fill="none" stroke="gray" d="M36,-168C36,-168 1032,-168 1032,-168 1038,-168 1044,-174 1044,-180 1044,-180 1044,-2121 1044,-2121 1044,-2127 1038,-2133 1032,-2133 1032,-2133 36,-2133 36,-2133 30,-2133 24,-2127 24,-2121 24,-2121 24,-180 24,-180 24,-174 30,-168 36,-168"/>
<text text-anchor="middle" x="534" y="-2119.1" font-family="Times,serif" font-size="11.00" fill="gray">MSF</text>
</g>
<g id="clust4" class="cluster"><title>cluster_\PG\MSF\Base</title>
<path fill="none" stroke="gray" d="M44,-222C44,-222 476,-222 476,-222 482,-222 488,-228 488,-234 488,-234 488,-391 488,-391 488,-397 482,-403 476,-403 476,-403 44,-403 44,-403 38,-403 32,-397 32,-391 32,-391 32,-234 32,-234 32,-228 38,-222 44,-222"/>
<text text-anchor="middle" x="260" y="-389.1" font-family="Times,serif" font-size="11.00" fill="gray">Base</text>
</g>
<g id="clust5" class="cluster"><title>cluster_\PG\MSF\Console</title>
<path fill="none" stroke="gray" d="M637,-1383C637,-1383 713,-1383 713,-1383 719,-1383 725,-1389 725,-1395 725,-1395 725,-1498 725,-1498 725,-1504 719,-1510 713,-1510 713,-1510 637,-1510 637,-1510 631,-1510 625,-1504 625,-1498 625,-1498 625,-1395 625,-1395 625,-1389 631,-1383 637,-1383"/>
<text text-anchor="middle" x="675" y="-1496.1" font-family="Times,serif" font-size="11.00" fill="gray">Console</text>
</g>
<g id="clust6" class="cluster"><title>cluster_\PG\MSF\Controllers</title>
<path fill="none" stroke="gray" d="M400,-1518C400,-1518 703,-1518 703,-1518 709,-1518 715,-1524 715,-1530 715,-1530 715,-1633 715,-1633 715,-1639 709,-1645 703,-1645 703,-1645 400,-1645 400,-1645 394,-1645 388,-1639 388,-1633 388,-1633 388,-1530 388,-1530 388,-1524 394,-1518 400,-1518"/>
<text text-anchor="middle" x="551.5" y="-1631.1" font-family="Times,serif" font-size="11.00" fill="gray">Controllers</text>
</g>
<g id="clust7" class="cluster"><title>cluster_\PG\MSF\Coroutine</title>
<path fill="none" stroke="gray" d="M911,-1545C911,-1545 987,-1545 987,-1545 993,-1545 999,-1551 999,-1557 999,-1557 999,-2092 999,-2092 999,-2098 993,-2104 987,-2104 987,-2104 911,-2104 911,-2104 905,-2104 899,-2098 899,-2092 899,-2092 899,-1557 899,-1557 899,-1551 905,-1545 911,-1545"/>
<text text-anchor="middle" x="949" y="-2090.1" font-family="Times,serif" font-size="11.00" fill="gray">Coroutine</text>
</g>
<g id="clust8" class="cluster"><title>cluster_\PG\MSF\Helpers</title>
<path fill="none" stroke="gray" d="M922,-1464C922,-1464 976,-1464 976,-1464 982,-1464 988,-1470 988,-1476 988,-1476 988,-1525 988,-1525 988,-1531 982,-1537 976,-1537 976,-1537 922,-1537 922,-1537 916,-1537 910,-1531 910,-1525 910,-1525 910,-1476 910,-1476 910,-1470 916,-1464 922,-1464"/>
<text text-anchor="middle" x="949" y="-1523.1" font-family="Times,serif" font-size="11.00" fill="gray">Helpers</text>
</g>
<g id="clust9" class="cluster"><title>cluster_\PG\MSF\Memory</title>
<path fill="none" stroke="gray" d="M926,-1383C926,-1383 972,-1383 972,-1383 978,-1383 984,-1389 984,-1395 984,-1395 984,-1444 984,-1444 984,-1450 978,-1456 972,-1456 972,-1456 926,-1456 926,-1456 920,-1456 914,-1450 914,-1444 914,-1444 914,-1395 914,-1395 914,-1389 920,-1383 926,-1383"/>
<text text-anchor="middle" x="949" y="-1442.1" font-family="Times,serif" font-size="11.00" fill="gray">Memory</text>
</g>
<g id="clust10" class="cluster"><title>cluster_\PG\MSF\Models</title>
<path fill="none" stroke="gray" d="M415,-1194C415,-1194 461,-1194 461,-1194 467,-1194 473,-1200 473,-1206 473,-1206 473,-1255 473,-1255 473,-1261 467,-1267 461,-1267 461,-1267 415,-1267 415,-1267 409,-1267 403,-1261 403,-1255 403,-1255 403,-1206 403,-1206 403,-1200 409,-1194 415,-1194"/>
<text text-anchor="middle" x="438" y="-1253.1" font-family="Times,serif" font-size="11.00" fill="gray">Models</text>
</g>
<g id="clust11" class="cluster"><title>cluster_\PG\MSF\Pack</title>
<path fill="none" stroke="gray" d="M652,-1194C652,-1194 997,-1194 997,-1194 1003,-1194 1009,-1200 1009,-1206 1009,-1206 1009,-1363 1009,-1363 1009,-1369 1003,-1375 997,-1375 997,-1375 652,-1375 652,-1375 646,-1375 640,-1369 640,-1363 640,-1363 640,-1206 640,-1206 640,-1200 646,-1194 652,-1194"/>
<text text-anchor="middle" x="824.5" y="-1361.1" font-family="Times,serif" font-size="11.00" fill="gray">Pack</text>
</g>
<g id="clust12" class="cluster"><title>cluster_\PG\MSF\Pools</title>
<path fill="none" stroke="gray" d="M404,-897C404,-897 1017,-897 1017,-897 1023,-897 1029,-903 1029,-909 1029,-909 1029,-1174 1029,-1174 1029,-1180 1023,-1186 1017,-1186 1017,-1186 404,-1186 404,-1186 398,-1186 392,-1180 392,-1174 392,-1174 392,-909 392,-909 392,-903 398,-897 404,-897"/>
<text text-anchor="middle" x="710.5" y="-1172.1" font-family="Times,serif" font-size="11.00" fill="gray">Pools</text>
</g>
<g id="clust13" class="cluster"><title>cluster_\PG\MSF\Process</title>
<path fill="none" stroke="gray" d="M634,-708C634,-708 977,-708 977,-708 983,-708 989,-714 989,-720 989,-720 989,-877 989,-877 989,-883 983,-889 977,-889 977,-889 634,-889 634,-889 628,-889 622,-883 622,-877 622,-877 622,-720 622,-720 622,-714 628,-708 634,-708"/>
<text text-anchor="middle" x="805.5" y="-875.1" font-family="Times,serif" font-size="11.00" fill="gray">Process</text>
</g>
<g id="clust14" class="cluster"><title>cluster_\PG\MSF\Proxy</title>
<path fill="none" stroke="gray" d="M651,-573C651,-573 1024,-573 1024,-573 1030,-573 1036,-579 1036,-585 1036,-585 1036,-688 1036,-688 1036,-694 1030,-700 1024,-700 1024,-700 651,-700 651,-700 645,-700 639,-694 639,-688 639,-688 639,-585 639,-585 639,-579 645,-573 651,-573"/>
<text text-anchor="middle" x="837.5" y="-686.1" font-family="Times,serif" font-size="11.00" fill="gray">Proxy</text>
</g>
<g id="clust15" class="cluster"><title>cluster_\PG\MSF\Rest</title>
<path fill="none" stroke="gray" d="M400,-1653C400,-1653 476,-1653 476,-1653 482,-1653 488,-1659 488,-1665 488,-1665 488,-1768 488,-1768 488,-1774 482,-1780 476,-1780 476,-1780 400,-1780 400,-1780 394,-1780 388,-1774 388,-1768 388,-1768 388,-1665 388,-1665 388,-1659 394,-1653 400,-1653"/>
<text text-anchor="middle" x="438" y="-1766.1" font-family="Times,serif" font-size="11.00" fill="gray">Rest</text>
</g>
<g id="clust16" class="cluster"><title>cluster_\PG\MSF\Route</title>
<path fill="none" stroke="gray" d="M414,-492C414,-492 983,-492 983,-492 989,-492 995,-498 995,-504 995,-504 995,-553 995,-553 995,-559 989,-565 983,-565 983,-565 414,-565 414,-565 408,-565 402,-559 402,-553 402,-553 402,-504 402,-504 402,-498 408,-492 414,-492"/>
<text text-anchor="middle" x="698.5" y="-551.1" font-family="Times,serif" font-size="11.00" fill="gray">Route</text>
</g>
<g id="clust17" class="cluster"><title>cluster_\PG\MSF\Tasks</title>
<path fill="none" stroke="gray" d="M404,-411C404,-411 991,-411 991,-411 997,-411 1003,-417 1003,-423 1003,-423 1003,-472 1003,-472 1003,-478 997,-484 991,-484 991,-484 404,-484 404,-484 398,-484 392,-478 392,-472 392,-472 392,-423 392,-423 392,-417 398,-411 404,-411"/>
<text text-anchor="middle" x="697.5" y="-470.1" font-family="Times,serif" font-size="11.00" fill="gray">Tasks</text>
</g>
<!-- \\PG\\MSF\\Base\\AOPFactory -->
<g id="node1" class="node"><title>\\PG\\MSF\\Base\\AOPFactory</title>
<polygon fill="none" stroke="black" points="480,-266 396,-266 396,-230 480,-230 480,-266"/>
<text text-anchor="middle" x="438" y="-244.6" font-family="Courier,monospace" font-size="11.00">AOPFactory</text>
</g>
<!-- \\PG\\AOP\\Factory -->
<g id="node55" class="node"><title>\\PG\\AOP\\Factory</title>
<ellipse fill="none" stroke="black" cx="245" cy="-126" rx="78.472" ry="18"/>
<text text-anchor="middle" x="245" y="-121.4" font-family="Times,serif" font-size="14.00" fill="gray">\PG\AOP\Factory</text>
</g>
<!-- \\PG\\MSF\\Base\\AOPFactory&#45;&gt;\\PG\\AOP\\Factory -->
<g id="edge1" class="edge"><title>\\PG\\MSF\\Base\\AOPFactory&#45;&gt;\\PG\\AOP\\Factory</title>
<path fill="none" stroke="black" d="M395.779,-230.791C393.088,-229.274 390.47,-227.674 388,-226 355.22,-203.777 356.428,-186.734 324,-164 314.556,-157.379 303.783,-151.319 293.321,-146.077"/>
<polygon fill="none" stroke="black" points="294.775,-142.892 284.249,-141.687 291.726,-149.194 294.775,-142.892"/>
</g>
<!-- \\PG\\MSF\\Base\\Child -->
<g id="node2" class="node"><title>\\PG\\MSF\\Base\\Child</title>
<polygon fill="none" stroke="black" points="94,-320 40,-320 40,-284 94,-284 94,-320"/>
<text text-anchor="middle" x="67" y="-298.6" font-family="Courier,monospace" font-size="11.00">Child</text>
</g>
<!-- \\PG\\MSF\\Base\\Core -->
<g id="node3" class="node"><title>\\PG\\MSF\\Base\\Core</title>
<polygon fill="none" stroke="black" points="272,-374 218,-374 218,-338 272,-338 272,-374"/>
<text text-anchor="middle" x="245" y="-352.6" font-family="Courier,monospace" font-size="11.00">Core</text>
</g>
<!-- \\PG\\MSF\\Base\\Core&#45;&gt;\\PG\\MSF\\Base\\Child -->
<g id="edge2" class="edge"><title>\\PG\\MSF\\Base\\Core&#45;&gt;\\PG\\MSF\\Base\\Child</title>
<path fill="none" stroke="black" d="M217.923,-348.93C202.73,-344.741 183.23,-339.241 166,-334 145.244,-327.687 122.172,-320.178 103.631,-314.021"/>
<polygon fill="none" stroke="black" points="104.707,-310.69 94.1133,-310.847 102.493,-317.331 104.707,-310.69"/>
</g>
<!-- \\PG\\MSF\\Base\\Input -->
<g id="node4" class="node"><title>\\PG\\MSF\\Base\\Input</title>
<polygon fill="none" stroke="black" points="465,-374 411,-374 411,-338 465,-338 465,-374"/>
<text text-anchor="middle" x="438" y="-352.6" font-family="Courier,monospace" font-size="11.00">Input</text>
</g>
<!-- \\PG\\MSF\\Base\\Input&#45;&gt;\\PG\\MSF\\Base\\Core -->
<g id="edge3" class="edge"><title>\\PG\\MSF\\Base\\Input&#45;&gt;\\PG\\MSF\\Base\\Core</title>
<path fill="none" stroke="black" d="M410.843,-356C377.503,-356 319.701,-356 282.161,-356"/>
<polygon fill="none" stroke="black" points="282.147,-352.5 272.147,-356 282.147,-359.5 282.147,-352.5"/>
</g>
<!-- \\PG\\MSF\\Base\\Output -->
<g id="node5" class="node"><title>\\PG\\MSF\\Base\\Output</title>
<polygon fill="none" stroke="black" points="466,-320 410,-320 410,-284 466,-284 466,-320"/>
<text text-anchor="middle" x="438" y="-298.6" font-family="Courier,monospace" font-size="11.00">Output</text>
</g>
<!-- \\PG\\MSF\\Base\\Output&#45;&gt;\\PG\\MSF\\Base\\Core -->
<g id="edge4" class="edge"><title>\\PG\\MSF\\Base\\Output&#45;&gt;\\PG\\MSF\\Base\\Core</title>
<path fill="none" stroke="black" d="M409.602,-309.768C386.719,-316.253 353.235,-325.738 324,-334 310.19,-337.903 295.002,-342.188 281.726,-345.932"/>
<polygon fill="none" stroke="black" points="280.677,-342.591 272.002,-348.673 282.576,-349.329 280.677,-342.591"/>
</g>
<!-- \\PG\\MSF\\Console\\Controller -->
<g id="node6" class="node"><title>\\PG\\MSF\\Console\\Controller</title>
<polygon fill="none" stroke="black" points="716.5,-1481 633.5,-1481 633.5,-1445 716.5,-1445 716.5,-1481"/>
<text text-anchor="middle" x="675" y="-1459.6" font-family="Courier,monospace" font-size="11.00">Controller</text>
</g>
<!-- \\PG\\MSF\\Controllers\\Controller -->
<g id="node8" class="node"><title>\\PG\\MSF\\Controllers\\Controller</title>
<polygon fill="none" stroke="black" points="479.5,-1562 396.5,-1562 396.5,-1526 479.5,-1526 479.5,-1562"/>
<text text-anchor="middle" x="438" y="-1540.6" font-family="Courier,monospace" font-size="11.00">Controller</text>
</g>
<!-- \\PG\\MSF\\Console\\Controller&#45;&gt;\\PG\\MSF\\Controllers\\Controller -->
<g id="edge5" class="edge"><title>\\PG\\MSF\\Console\\Controller&#45;&gt;\\PG\\MSF\\Controllers\\Controller</title>
<path fill="none" stroke="black" d="M633.334,-1477.02C593.36,-1490.8 532.257,-1511.86 489.26,-1526.68"/>
<polygon fill="none" stroke="black" points="487.875,-1523.45 479.561,-1530.02 490.156,-1530.07 487.875,-1523.45"/>
</g>
<!-- \\PG\\MSF\\Console\\Request -->
<g id="node7" class="node"><title>\\PG\\MSF\\Console\\Request</title>
<polygon fill="none" stroke="black" points="706,-1427 644,-1427 644,-1391 706,-1391 706,-1427"/>
<text text-anchor="middle" x="675" y="-1405.6" font-family="Courier,monospace" font-size="11.00">Request</text>
</g>
<!-- \\PG\\MSF\\Controllers\\Controller&#45;&gt;\\PG\\MSF\\Base\\Core -->
<g id="edge6" class="edge"><title>\\PG\\MSF\\Controllers\\Controller&#45;&gt;\\PG\\MSF\\Base\\Core</title>
<path fill="none" stroke="black" d="M433.583,-1525.82C425.385,-1482.02 404.091,-1367.17 388,-1271 329.593,-921.919 266.619,-496.494 250.134,-384.242"/>
<polygon fill="none" stroke="black" points="253.559,-383.471 248.644,-374.085 246.633,-384.487 253.559,-383.471"/>
</g>
<!-- \\PG\\MSF\\Controllers\\Monitor -->
<g id="node9" class="node"><title>\\PG\\MSF\\Controllers\\Monitor</title>
<polygon fill="none" stroke="black" points="707,-1562 643,-1562 643,-1526 707,-1526 707,-1562"/>
<text text-anchor="middle" x="675" y="-1540.6" font-family="Courier,monospace" font-size="11.00">Monitor</text>
</g>
<!-- \\PG\\MSF\\Controllers\\Monitor&#45;&gt;\\PG\\MSF\\Controllers\\Controller -->
<g id="edge7" class="edge"><title>\\PG\\MSF\\Controllers\\Monitor&#45;&gt;\\PG\\MSF\\Controllers\\Controller</title>
<path fill="none" stroke="black" d="M642.794,-1544C603.793,-1544 536.523,-1544 489.996,-1544"/>
<polygon fill="none" stroke="black" points="489.816,-1540.5 479.816,-1544 489.816,-1547.5 489.816,-1540.5"/>
</g>
<!-- \\PG\\MSF\\Controllers\\Rest -->
<g id="node10" class="node"><title>\\PG\\MSF\\Controllers\\Rest</title>
<polygon fill="none" stroke="black" points="702,-1616 648,-1616 648,-1580 702,-1580 702,-1616"/>
<text text-anchor="middle" x="675" y="-1594.6" font-family="Courier,monospace" font-size="11.00">Rest</text>
</g>
<!-- \\PG\\MSF\\Rest\\Controller -->
<g id="node42" class="node"><title>\\PG\\MSF\\Rest\\Controller</title>
<polygon fill="none" stroke="black" points="479.5,-1751 396.5,-1751 396.5,-1715 479.5,-1715 479.5,-1751"/>
<text text-anchor="middle" x="438" y="-1729.6" font-family="Courier,monospace" font-size="11.00">Controller</text>
</g>
<!-- \\PG\\MSF\\Controllers\\Rest&#45;&gt;\\PG\\MSF\\Rest\\Controller -->
<g id="edge8" class="edge"><title>\\PG\\MSF\\Controllers\\Rest&#45;&gt;\\PG\\MSF\\Rest\\Controller</title>
<path fill="none" stroke="black" d="M647.924,-1613.39C612.042,-1634.51 545.363,-1673.55 488,-1706 485.663,-1707.32 483.26,-1708.67 480.832,-1710.03"/>
<polygon fill="none" stroke="black" points="479.038,-1707.02 472.003,-1714.95 482.443,-1713.14 479.038,-1707.02"/>
</g>
<!-- \\PG\\MSF\\Coroutine\\CException -->
<g id="node11" class="node"><title>\\PG\\MSF\\Coroutine\\CException</title>
<polygon fill="none" stroke="black" points="990.5,-2075 907.5,-2075 907.5,-2039 990.5,-2039 990.5,-2075"/>
<text text-anchor="middle" x="949" y="-2053.6" font-family="Courier,monospace" font-size="11.00">CException</text>
</g>
<!-- \\Exception -->
<g id="node56" class="node"><title>\\Exception</title>
<ellipse fill="none" stroke="black" cx="675" cy="-126" rx="52.1486" ry="18"/>
<text text-anchor="middle" x="675" y="-121.4" font-family="Times,serif" font-size="14.00" fill="gray">\Exception</text>
</g>
<!-- \\PG\\MSF\\Coroutine\\CException&#45;&gt;\\Exception -->
<g id="edge9" class="edge"><title>\\PG\\MSF\\Coroutine\\CException&#45;&gt;\\Exception</title>
<path fill="none" stroke="black" d="M907.14,-2052.3C893.135,-2048.54 878.792,-2041.86 870,-2030 746.413,-1863.33 924.18,-328.711 798,-164 783.486,-145.054 759.626,-135.321 736.838,-130.404"/>
<polygon fill="none" stroke="black" points="737.3,-126.929 726.825,-128.523 736.007,-133.809 737.3,-126.929"/>
</g>
<!-- \\PG\\MSF\\Coroutine\\CNull -->
<g id="node12" class="node"><title>\\PG\\MSF\\Coroutine\\CNull</title>
<polygon fill="none" stroke="black" points="976,-2021 922,-2021 922,-1985 976,-1985 976,-2021"/>
<text text-anchor="middle" x="949" y="-1999.6" font-family="Courier,monospace" font-size="11.00">CNull</text>
</g>
<!-- \\PG\\MSF\\Coroutine\\CTask -->
<g id="node13" class="node"><title>\\PG\\MSF\\Coroutine\\CTask</title>
<polygon fill="none" stroke="black" points="976,-1967 922,-1967 922,-1931 976,-1931 976,-1967"/>
<text text-anchor="middle" x="949" y="-1945.6" font-family="Courier,monospace" font-size="11.00">CTask</text>
</g>
<!-- \\PG\\MSF\\Coroutine\\Base -->
<g id="node57" class="node"><title>\\PG\\MSF\\Coroutine\\Base</title>
<ellipse fill="none" stroke="black" cx="675" cy="-72" rx="108.004" ry="18"/>
<text text-anchor="middle" x="675" y="-67.4" font-family="Times,serif" font-size="14.00" fill="gray">\PG\MSF\Coroutine\Base</text>
</g>
<!-- \\PG\\MSF\\Coroutine\\CTask&#45;&gt;\\PG\\MSF\\Coroutine\\Base -->
<g id="edge10" class="edge"><title>\\PG\\MSF\\Coroutine\\CTask&#45;&gt;\\PG\\MSF\\Coroutine\\Base</title>
<path fill="none" stroke="black" d="M921.833,-1947.32C904.164,-1944.67 881.957,-1938.11 870,-1922 749.182,-1759.22 928.007,-254.534 798,-99 793.17,-93.2213 787.406,-88.5134 781.05,-84.6922"/>
<polygon fill="none" stroke="black" points="782.536,-81.52 772.049,-80.0137 779.308,-87.7311 782.536,-81.52"/>
</g>
<!-- \\PG\\MSF\\Coroutine\\Dns -->
<g id="node14" class="node"><title>\\PG\\MSF\\Coroutine\\Dns</title>
<polygon fill="none" stroke="black" points="976,-1913 922,-1913 922,-1877 976,-1877 976,-1913"/>
<text text-anchor="middle" x="949" y="-1891.6" font-family="Courier,monospace" font-size="11.00">Dns</text>
</g>
<!-- \\PG\\MSF\\Coroutine\\Dns&#45;&gt;\\PG\\MSF\\Coroutine\\Base -->
<g id="edge11" class="edge"><title>\\PG\\MSF\\Coroutine\\Dns&#45;&gt;\\PG\\MSF\\Coroutine\\Base</title>
<path fill="none" stroke="black" d="M921.839,-1893.31C904.172,-1890.67 881.967,-1884.1 870,-1868 752.66,-1710.11 924.253,-249.859 798,-99 793.166,-93.2242 787.4,-88.5185 781.042,-84.6987"/>
<polygon fill="none" stroke="black" points="782.526,-81.5257 772.039,-80.0219 779.3,-87.7376 782.526,-81.5257"/>
</g>
<!-- \\PG\\MSF\\Coroutine\\Http -->
<g id="node15" class="node"><title>\\PG\\MSF\\Coroutine\\Http</title>
<polygon fill="none" stroke="black" points="976,-1859 922,-1859 922,-1823 976,-1823 976,-1859"/>
<text text-anchor="middle" x="949" y="-1837.6" font-family="Courier,monospace" font-size="11.00">Http</text>
</g>
<!-- \\PG\\MSF\\Coroutine\\Http&#45;&gt;\\PG\\MSF\\Coroutine\\Base -->
<g id="edge12" class="edge"><title>\\PG\\MSF\\Coroutine\\Http&#45;&gt;\\PG\\MSF\\Coroutine\\Base</title>
<path fill="none" stroke="black" d="M921.846,-1839.31C904.182,-1836.66 881.977,-1830.09 870,-1814 756.138,-1660.99 920.499,-245.183 798,-99 793.163,-93.2273 787.393,-88.5238 781.034,-84.7057"/>
<polygon fill="none" stroke="black" points="782.516,-81.5318 772.029,-80.0306 779.291,-87.7445 782.516,-81.5318"/>
</g>
<!-- \\PG\\MSF\\Coroutine\\MySql -->
<g id="node16" class="node"><title>\\PG\\MSF\\Coroutine\\MySql</title>
<polygon fill="none" stroke="black" points="976,-1805 922,-1805 922,-1769 976,-1769 976,-1805"/>
<text text-anchor="middle" x="949" y="-1783.6" font-family="Courier,monospace" font-size="11.00">MySql</text>
</g>
<!-- \\PG\\MSF\\Coroutine\\MySql&#45;&gt;\\PG\\MSF\\Coroutine\\Base -->
<g id="edge13" class="edge"><title>\\PG\\MSF\\Coroutine\\MySql&#45;&gt;\\PG\\MSF\\Coroutine\\Base</title>
<path fill="none" stroke="black" d="M921.852,-1785.3C904.192,-1782.65 881.988,-1776.09 870,-1760 759.616,-1611.88 916.745,-240.507 798,-99 793.159,-93.2306 787.387,-88.5295 781.025,-84.7131"/>
<polygon fill="none" stroke="black" points="782.506,-81.5383 772.017,-80.0399 779.282,-87.7518 782.506,-81.5383"/>
</g>
<!-- \\PG\\MSF\\Coroutine\\Redis -->
<g id="node17" class="node"><title>\\PG\\MSF\\Coroutine\\Redis</title>
<polygon fill="none" stroke="black" points="976,-1751 922,-1751 922,-1715 976,-1715 976,-1751"/>
<text text-anchor="middle" x="949" y="-1729.6" font-family="Courier,monospace" font-size="11.00">Redis</text>
</g>
<!-- \\PG\\MSF\\Coroutine\\Redis&#45;&gt;\\PG\\MSF\\Coroutine\\Base -->
<g id="edge14" class="edge"><title>\\PG\\MSF\\Coroutine\\Redis&#45;&gt;\\PG\\MSF\\Coroutine\\Base</title>
<path fill="none" stroke="black" d="M921.86,-1731.3C904.202,-1728.65 882,-1722.08 870,-1706 763.094,-1562.76 912.992,-235.832 798,-99 793.154,-93.2341 787.379,-88.5356 781.016,-84.7209"/>
<polygon fill="none" stroke="black" points="782.494,-81.5452 772.006,-80.0498 779.273,-87.7597 782.494,-81.5452"/>
</g>
<!-- \\PG\\MSF\\Coroutine\\Scheduler -->
<g id="node18" class="node"><title>\\PG\\MSF\\Coroutine\\Scheduler</title>
<polygon fill="none" stroke="black" points="987,-1697 911,-1697 911,-1661 987,-1661 987,-1697"/>
<text text-anchor="middle" x="949" y="-1675.6" font-family="Courier,monospace" font-size="11.00">Scheduler</text>
</g>
<!-- \\PG\\MSF\\Coroutine\\Task -->
<g id="node19" class="node"><title>\\PG\\MSF\\Coroutine\\Task</title>
<polygon fill="none" stroke="black" points="976,-1643 922,-1643 922,-1607 976,-1607 976,-1643"/>
<text text-anchor="middle" x="949" y="-1621.6" font-family="Courier,monospace" font-size="11.00">Task</text>
</g>
<!-- \\PG\\MSF\\Coroutine\\IBase -->
<g id="node20" class="node"><title>\\PG\\MSF\\Coroutine\\IBase</title>
<polygon fill="none" stroke="black" points="976,-1589 922,-1589 922,-1553 976,-1553 976,-1589"/>
<text text-anchor="middle" x="949" y="-1567.6" font-family="Courier,monospace" font-size="11.00">IBase</text>
</g>
<!-- \\PG\\MSF\\Helpers\\Context -->
<g id="node21" class="node"><title>\\PG\\MSF\\Helpers\\Context</title>
<polygon fill="none" stroke="black" points="980,-1508 918,-1508 918,-1472 980,-1472 980,-1508"/>
<text text-anchor="middle" x="949" y="-1486.6" font-family="Courier,monospace" font-size="11.00">Context</text>
</g>
<!-- \\PG\\Context\\AbstractContext -->
<g id="node58" class="node"><title>\\PG\\Context\\AbstractContext</title>
<ellipse fill="none" stroke="black" cx="675" cy="-18" rx="122.521" ry="18"/>
<text text-anchor="middle" x="675" y="-13.4" font-family="Times,serif" font-size="14.00" fill="gray">\PG\Context\AbstractContext</text>
</g>
<!-- \\PG\\MSF\\Helpers\\Context&#45;&gt;\\PG\\Context\\AbstractContext -->
<g id="edge15" class="edge"><title>\\PG\\MSF\\Helpers\\Context&#45;&gt;\\PG\\Context\\AbstractContext</title>
<path fill="none" stroke="black" d="M917.959,-1486.45C901.011,-1482.77 881.07,-1475.27 870,-1460 685.212,-1205.08 1001.29,-285.422 798,-45 794.236,-40.5482 789.917,-36.7335 785.202,-33.4712"/>
<polygon fill="none" stroke="black" points="786.703,-30.2914 776.322,-28.1775 783.119,-36.3042 786.703,-30.2914"/>
</g>
<!-- \\PG\\MSF\\Memory\\Pool -->
<g id="node22" class="node"><title>\\PG\\MSF\\Memory\\Pool</title>
<polygon fill="none" stroke="black" points="976,-1427 922,-1427 922,-1391 976,-1391 976,-1427"/>
<text text-anchor="middle" x="949" y="-1405.6" font-family="Courier,monospace" font-size="11.00">Pool</text>
</g>
<!-- \\PG\\MSF\\Models\\Model -->
<g id="node23" class="node"><title>\\PG\\MSF\\Models\\Model</title>
<polygon fill="none" stroke="black" points="465,-1238 411,-1238 411,-1202 465,-1202 465,-1238"/>
<text text-anchor="middle" x="438" y="-1216.6" font-family="Courier,monospace" font-size="11.00">Model</text>
</g>
<!-- \\PG\\MSF\\Models\\Model&#45;&gt;\\PG\\MSF\\Base\\Core -->
<g id="edge17" class="edge"><title>\\PG\\MSF\\Models\\Model&#45;&gt;\\PG\\MSF\\Base\\Core</title>
<path fill="none" stroke="black" d="M410.818,-1209.36C402.291,-1204.64 393.591,-1198.26 388,-1190 295.603,-1053.49 256.068,-515.217 247.728,-384.646"/>
<polygon fill="none" stroke="black" points="251.197,-384.049 247.078,-374.288 244.211,-384.488 251.197,-384.049"/>
</g>
<!-- \\PG\\MSF\\Pack\\JsonPack -->
<g id="node24" class="node"><title>\\PG\\MSF\\Pack\\JsonPack</title>
<polygon fill="none" stroke="black" points="983.5,-1346 914.5,-1346 914.5,-1310 983.5,-1310 983.5,-1346"/>
<text text-anchor="middle" x="949" y="-1324.6" font-family="Courier,monospace" font-size="11.00">JsonPack</text>
</g>
<!-- \\PG\\MSF\\Pack\\IPack -->
<g id="node27" class="node"><title>\\PG\\MSF\\Pack\\IPack</title>
<polygon fill="none" stroke="black" points="702,-1292 648,-1292 648,-1256 702,-1256 702,-1292"/>
<text text-anchor="middle" x="675" y="-1270.6" font-family="Courier,monospace" font-size="11.00">IPack</text>
</g>
<!-- \\PG\\MSF\\Pack\\JsonPack&#45;&gt;\\PG\\MSF\\Pack\\IPack -->
<g id="edge20" class="edge"><title>\\PG\\MSF\\Pack\\JsonPack&#45;&gt;\\PG\\MSF\\Pack\\IPack</title>
<path fill="none" stroke="black" stroke-dasharray="1,5" d="M914.375,-1321.32C862.939,-1311.11 765.132,-1291.7 712.197,-1281.19"/>
<polygon fill="none" stroke="black" points="712.726,-1277.72 702.236,-1279.21 711.363,-1284.59 712.726,-1277.72"/>
</g>
<!-- \\PG\\MSF\\Pack\\MsgPack -->
<g id="node25" class="node"><title>\\PG\\MSF\\Pack\\MsgPack</title>
<polygon fill="none" stroke="black" points="981,-1292 917,-1292 917,-1256 981,-1256 981,-1292"/>
<text text-anchor="middle" x="949" y="-1270.6" font-family="Courier,monospace" font-size="11.00">MsgPack</text>
</g>
<!-- \\PG\\MSF\\Pack\\MsgPack&#45;&gt;\\PG\\MSF\\Pack\\IPack -->
<g id="edge21" class="edge"><title>\\PG\\MSF\\Pack\\MsgPack&#45;&gt;\\PG\\MSF\\Pack\\IPack</title>
<path fill="none" stroke="black" stroke-dasharray="1,5" d="M916.798,-1274C866.04,-1274 765.864,-1274 712.107,-1274"/>
<polygon fill="none" stroke="black" points="712.004,-1270.5 702.003,-1274 712.003,-1277.5 712.004,-1270.5"/>
</g>
<!-- \\PG\\MSF\\Pack\\SerializePack -->
<g id="node26" class="node"><title>\\PG\\MSF\\Pack\\SerializePack</title>
<polygon fill="none" stroke="black" points="1000.5,-1238 897.5,-1238 897.5,-1202 1000.5,-1202 1000.5,-1238"/>
<text text-anchor="middle" x="949" y="-1216.6" font-family="Courier,monospace" font-size="11.00">SerializePack</text>
</g>
<!-- \\PG\\MSF\\Pack\\SerializePack&#45;&gt;\\PG\\MSF\\Pack\\IPack -->
<g id="edge22" class="edge"><title>\\PG\\MSF\\Pack\\SerializePack&#45;&gt;\\PG\\MSF\\Pack\\IPack</title>
<path fill="none" stroke="black" stroke-dasharray="1,5" d="M897.476,-1230.03C843.659,-1240.71 759.811,-1257.36 712.216,-1266.81"/>
<polygon fill="none" stroke="black" points="711.478,-1263.39 702.351,-1268.77 712.841,-1270.25 711.478,-1263.39"/>
</g>
<!-- \\PG\\MSF\\Pools\\AsynPool -->
<g id="node28" class="node"><title>\\PG\\MSF\\Pools\\AsynPool</title>
<polygon fill="none" stroke="black" points="716.5,-968 633.5,-968 633.5,-932 716.5,-932 716.5,-968"/>
<text text-anchor="start" x="641.5" y="-953.1" font-family="Courier,monospace" font-size="11.00">«abstract»</text>
<text text-anchor="start" x="648" y="-940.1" font-family="Courier,monospace" font-size="11.00">AsynPool</text>
</g>
<!-- \\PG\\MSF\\Pools\\IAsynPool -->
<g id="node34" class="node"><title>\\PG\\MSF\\Pools\\IAsynPool</title>
<polygon fill="none" stroke="black" points="476,-968 400,-968 400,-932 476,-932 476,-968"/>
<text text-anchor="middle" x="438" y="-946.6" font-family="Courier,monospace" font-size="11.00">IAsynPool</text>
</g>
<!-- \\PG\\MSF\\Pools\\AsynPool&#45;&gt;\\PG\\MSF\\Pools\\IAsynPool -->
<g id="edge23" class="edge"><title>\\PG\\MSF\\Pools\\AsynPool&#45;&gt;\\PG\\MSF\\Pools\\IAsynPool</title>
<path fill="none" stroke="black" stroke-dasharray="1,5" d="M633.334,-950C592.436,-950 529.421,-950 486.309,-950"/>
<polygon fill="none" stroke="black" points="486.074,-946.5 476.074,-950 486.074,-953.5 486.074,-946.5"/>
</g>
<!-- \\PG\\MSF\\Pools\\AsynPoolManager -->
<g id="node29" class="node"><title>\\PG\\MSF\\Pools\\AsynPoolManager</title>
<polygon fill="none" stroke="black" points="1008,-1157 890,-1157 890,-1121 1008,-1121 1008,-1157"/>
<text text-anchor="middle" x="949" y="-1135.6" font-family="Courier,monospace" font-size="11.00">AsynPoolManager</text>
</g>
<!-- \\PG\\MSF\\Pools\\CoroutineRedisProxy -->
<g id="node30" class="node"><title>\\PG\\MSF\\Pools\\CoroutineRedisProxy</title>
<polygon fill="none" stroke="black" points="1021,-1103 877,-1103 877,-1067 1021,-1067 1021,-1103"/>
<text text-anchor="middle" x="949" y="-1081.6" font-family="Courier,monospace" font-size="11.00">CoroutineRedisProxy</text>
</g>
<!-- \\PG\\MSF\\Pools\\Miner -->
<g id="node31" class="node"><title>\\PG\\MSF\\Pools\\Miner</title>
<polygon fill="none" stroke="black" points="976,-1049 922,-1049 922,-1013 976,-1013 976,-1049"/>
<text text-anchor="middle" x="949" y="-1027.6" font-family="Courier,monospace" font-size="11.00">Miner</text>
</g>
<!-- \\PG\\MSF\\Pools\\MysqlAsynPool -->
<g id="node32" class="node"><title>\\PG\\MSF\\Pools\\MysqlAsynPool</title>
<polygon fill="none" stroke="black" points="1001,-995 897,-995 897,-959 1001,-959 1001,-995"/>
<text text-anchor="middle" x="949" y="-973.6" font-family="Courier,monospace" font-size="11.00">MysqlAsynPool</text>
</g>
<!-- \\PG\\MSF\\Pools\\MysqlAsynPool&#45;&gt;\\PG\\MSF\\Pools\\AsynPool -->
<g id="edge24" class="edge"><title>\\PG\\MSF\\Pools\\MysqlAsynPool&#45;&gt;\\PG\\MSF\\Pools\\AsynPool</title>
<path fill="none" stroke="black" d="M896.839,-971.922C848.134,-967.087 775.26,-959.853 726.707,-955.033"/>
<polygon fill="none" stroke="black" points="727.029,-951.548 716.733,-954.043 726.338,-958.514 727.029,-951.548"/>
</g>
<!-- \\PG\\MSF\\Pools\\RedisAsynPool -->
<g id="node33" class="node"><title>\\PG\\MSF\\Pools\\RedisAsynPool</title>
<polygon fill="none" stroke="black" points="1000.5,-941 897.5,-941 897.5,-905 1000.5,-905 1000.5,-941"/>
<text text-anchor="middle" x="949" y="-919.6" font-family="Courier,monospace" font-size="11.00">RedisAsynPool</text>
</g>
<!-- \\PG\\MSF\\Pools\\RedisAsynPool&#45;&gt;\\PG\\MSF\\Pools\\AsynPool -->
<g id="edge25" class="edge"><title>\\PG\\MSF\\Pools\\RedisAsynPool&#45;&gt;\\PG\\MSF\\Pools\\AsynPool</title>
<path fill="none" stroke="black" d="M897.476,-928.015C848.71,-932.856 775.284,-940.145 726.519,-944.985"/>
<polygon fill="none" stroke="black" points="726.111,-941.508 716.505,-945.979 726.802,-948.474 726.111,-941.508"/>
</g>
<!-- \\PG\\MSF\\Process\\Config -->
<g id="node35" class="node"><title>\\PG\\MSF\\Process\\Config</title>
<polygon fill="none" stroke="black" points="977,-860 921,-860 921,-824 977,-824 977,-860"/>
<text text-anchor="middle" x="949" y="-838.6" font-family="Courier,monospace" font-size="11.00">Config</text>
</g>
<!-- \\PG\\MSF\\Process\\ProcessBase -->
<g id="node37" class="node"><title>\\PG\\MSF\\Process\\ProcessBase</title>
<polygon fill="none" stroke="black" points="720,-806 630,-806 630,-770 720,-770 720,-806"/>
<text text-anchor="start" x="641.5" y="-791.1" font-family="Courier,monospace" font-size="11.00">«abstract»</text>
<text text-anchor="start" x="638" y="-778.1" font-family="Courier,monospace" font-size="11.00">ProcessBase</text>
</g>
<!-- \\PG\\MSF\\Process\\Config&#45;&gt;\\PG\\MSF\\Process\\ProcessBase -->
<g id="edge26" class="edge"><title>\\PG\\MSF\\Process\\Config&#45;&gt;\\PG\\MSF\\Process\\ProcessBase</title>
<path fill="none" stroke="black" d="M920.925,-836.625C876.685,-827.842 788.066,-810.248 730.436,-798.807"/>
<polygon fill="none" stroke="black" points="730.897,-795.33 720.406,-796.816 729.533,-802.196 730.897,-795.33"/>
</g>
<!-- \\PG\\MSF\\Process\\Inotify -->
<g id="node36" class="node"><title>\\PG\\MSF\\Process\\Inotify</title>
<polygon fill="none" stroke="black" points="980.5,-806 917.5,-806 917.5,-770 980.5,-770 980.5,-806"/>
<text text-anchor="middle" x="949" y="-784.6" font-family="Courier,monospace" font-size="11.00">Inotify</text>
</g>
<!-- \\PG\\MSF\\Process\\Inotify&#45;&gt;\\PG\\MSF\\Process\\ProcessBase -->
<g id="edge27" class="edge"><title>\\PG\\MSF\\Process\\Inotify&#45;&gt;\\PG\\MSF\\Process\\ProcessBase</title>
<path fill="none" stroke="black" d="M917.327,-788C871.941,-788 786.232,-788 730.129,-788"/>
<polygon fill="none" stroke="black" points="730.014,-784.5 720.014,-788 730.014,-791.5 730.014,-784.5"/>
</g>
<!-- \\PG\\MSF\\Process\\Timer -->
<g id="node38" class="node"><title>\\PG\\MSF\\Process\\Timer</title>
<polygon fill="none" stroke="black" points="976,-752 922,-752 922,-716 976,-716 976,-752"/>
<text text-anchor="middle" x="949" y="-730.6" font-family="Courier,monospace" font-size="11.00">Timer</text>
</g>
<!-- \\PG\\MSF\\Process\\Timer&#45;&gt;\\PG\\MSF\\Process\\ProcessBase -->
<g id="edge28" class="edge"><title>\\PG\\MSF\\Process\\Timer&#45;&gt;\\PG\\MSF\\Process\\ProcessBase</title>
<path fill="none" stroke="black" d="M921.919,-739.178C878.017,-747.894 788.469,-765.672 730.404,-777.199"/>
<polygon fill="none" stroke="black" points="729.429,-773.824 720.302,-779.205 730.792,-780.69 729.429,-773.824"/>
</g>
<!-- \\PG\\MSF\\Proxy\\RedisProxyFactory -->
<g id="node39" class="node"><title>\\PG\\MSF\\Proxy\\RedisProxyFactory</title>
<polygon fill="none" stroke="black" points="1014,-671 884,-671 884,-635 1014,-635 1014,-671"/>
<text text-anchor="middle" x="949" y="-649.6" font-family="Courier,monospace" font-size="11.00">RedisProxyFactory</text>
</g>
<!-- \\PG\\MSF\\Proxy\\RedisProxyMasterSlave -->
<g id="node40" class="node"><title>\\PG\\MSF\\Proxy\\RedisProxyMasterSlave</title>
<polygon fill="none" stroke="black" points="1027.5,-617 870.5,-617 870.5,-581 1027.5,-581 1027.5,-617"/>
<text text-anchor="middle" x="949" y="-595.6" font-family="Courier,monospace" font-size="11.00">RedisProxyMasterSlave</text>
</g>
<!-- \\PG\\MSF\\Proxy\\IProxy -->
<g id="node41" class="node"><title>\\PG\\MSF\\Proxy\\IProxy</title>
<polygon fill="none" stroke="black" points="703,-617 647,-617 647,-581 703,-581 703,-617"/>
<text text-anchor="middle" x="675" y="-595.6" font-family="Courier,monospace" font-size="11.00">IProxy</text>
</g>
<!-- \\PG\\MSF\\Proxy\\RedisProxyMasterSlave&#45;&gt;\\PG\\MSF\\Proxy\\IProxy -->
<g id="edge29" class="edge"><title>\\PG\\MSF\\Proxy\\RedisProxyMasterSlave&#45;&gt;\\PG\\MSF\\Proxy\\IProxy</title>
<path fill="none" stroke="black" stroke-dasharray="1,5" d="M870.42,-599C818.961,-599 753.725,-599 713.431,-599"/>
<polygon fill="none" stroke="black" points="713.254,-595.5 703.254,-599 713.254,-602.5 713.254,-595.5"/>
</g>
<!-- \\PG\\MSF\\Rest\\Controller&#45;&gt;\\PG\\MSF\\Controllers\\Controller -->
<g id="edge30" class="edge"><title>\\PG\\MSF\\Rest\\Controller&#45;&gt;\\PG\\MSF\\Controllers\\Controller</title>
<path fill="none" stroke="black" d="M479.754,-1724.77C495.086,-1719.5 510.903,-1710.93 520,-1697 529.478,-1682.49 525.317,-1674.5 520,-1658 508.943,-1623.69 483.309,-1590.99 463.621,-1569.48"/>
<polygon fill="none" stroke="black" points="466.071,-1566.98 456.675,-1562.08 460.967,-1571.77 466.071,-1566.98"/>
</g>
<!-- \\PG\\MSF\\Rest\\Serializer -->
<g id="node43" class="node"><title>\\PG\\MSF\\Rest\\Serializer</title>
<polygon fill="none" stroke="black" points="479.5,-1697 396.5,-1697 396.5,-1661 479.5,-1661 479.5,-1697"/>
<text text-anchor="middle" x="438" y="-1675.6" font-family="Courier,monospace" font-size="11.00">Serializer</text>
</g>
<!-- \\PG\\MSF\\Route\\NormalRoute -->
<g id="node44" class="node"><title>\\PG\\MSF\\Route\\NormalRoute</title>
<polygon fill="none" stroke="black" points="720,-536 630,-536 630,-500 720,-500 720,-536"/>
<text text-anchor="middle" x="675" y="-514.6" font-family="Courier,monospace" font-size="11.00">NormalRoute</text>
</g>
<!-- \\PG\\MSF\\Route\\IRoute -->
<g id="node46" class="node"><title>\\PG\\MSF\\Route\\IRoute</title>
<polygon fill="none" stroke="black" points="466,-536 410,-536 410,-500 466,-500 466,-536"/>
<text text-anchor="middle" x="438" y="-514.6" font-family="Courier,monospace" font-size="11.00">IRoute</text>
</g>
<!-- \\PG\\MSF\\Route\\NormalRoute&#45;&gt;\\PG\\MSF\\Route\\IRoute -->
<g id="edge31" class="edge"><title>\\PG\\MSF\\Route\\NormalRoute&#45;&gt;\\PG\\MSF\\Route\\IRoute</title>
<path fill="none" stroke="black" stroke-dasharray="1,5" d="M629.798,-518C585.428,-518 517.84,-518 476.151,-518"/>
<polygon fill="none" stroke="black" points="476.14,-514.5 466.14,-518 476.14,-521.5 476.14,-514.5"/>
</g>
<!-- \\PG\\MSF\\Route\\RestRoute -->
<g id="node45" class="node"><title>\\PG\\MSF\\Route\\RestRoute</title>
<polygon fill="none" stroke="black" points="987,-536 911,-536 911,-500 987,-500 987,-536"/>
<text text-anchor="middle" x="949" y="-514.6" font-family="Courier,monospace" font-size="11.00">RestRoute</text>
</g>
<!-- \\PG\\MSF\\Route\\RestRoute&#45;&gt;\\PG\\MSF\\Route\\NormalRoute -->
<g id="edge32" class="edge"><title>\\PG\\MSF\\Route\\RestRoute&#45;&gt;\\PG\\MSF\\Route\\NormalRoute</title>
<path fill="none" stroke="black" d="M910.75,-518C864.237,-518 784.288,-518 730.791,-518"/>
<polygon fill="none" stroke="black" points="730.462,-514.5 720.462,-518 730.462,-521.5 730.462,-514.5"/>
</g>
<!-- \\PG\\MSF\\Tasks\\MongoDbTask -->
<g id="node47" class="node"><title>\\PG\\MSF\\Tasks\\MongoDbTask</title>
<polygon fill="none" stroke="black" points="994.5,-455 903.5,-455 903.5,-419 994.5,-419 994.5,-455"/>
<text text-anchor="middle" x="949" y="-433.6" font-family="Courier,monospace" font-size="11.00">MongoDbTask</text>
</g>
<!-- \\PG\\MSF\\Tasks\\Task -->
<g id="node48" class="node"><title>\\PG\\MSF\\Tasks\\Task</title>
<polygon fill="none" stroke="black" points="702,-455 648,-455 648,-419 702,-419 702,-455"/>
<text text-anchor="middle" x="675" y="-433.6" font-family="Courier,monospace" font-size="11.00">Task</text>
</g>
<!-- \\PG\\MSF\\Tasks\\MongoDbTask&#45;&gt;\\PG\\MSF\\Tasks\\Task -->
<g id="edge34" class="edge"><title>\\PG\\MSF\\Tasks\\MongoDbTask&#45;&gt;\\PG\\MSF\\Tasks\\Task</title>
<path fill="none" stroke="black" d="M903.389,-437C850.033,-437 761.747,-437 712.346,-437"/>
<polygon fill="none" stroke="black" points="712.129,-433.5 702.129,-437 712.129,-440.5 712.129,-433.5"/>
</g>
<!-- \\PG\\MSF\\Tasks\\TaskProxy -->
<g id="node49" class="node"><title>\\PG\\MSF\\Tasks\\TaskProxy</title>
<polygon fill="none" stroke="black" points="476,-455 400,-455 400,-419 476,-419 476,-455"/>
<text text-anchor="middle" x="438" y="-433.6" font-family="Courier,monospace" font-size="11.00">TaskProxy</text>
</g>
<!-- \\PG\\MSF\\Tasks\\Task&#45;&gt;\\PG\\MSF\\Tasks\\TaskProxy -->
<g id="edge35" class="edge"><title>\\PG\\MSF\\Tasks\\Task&#45;&gt;\\PG\\MSF\\Tasks\\TaskProxy</title>
<path fill="none" stroke="black" d="M647.953,-437C609.098,-437 535.325,-437 486.653,-437"/>
<polygon fill="none" stroke="black" points="486.368,-433.5 476.368,-437 486.368,-440.5 486.368,-433.5"/>
</g>
<!-- \\PG\\MSF\\Tasks\\TaskProxy&#45;&gt;\\PG\\MSF\\Base\\Core -->
<g id="edge36" class="edge"><title>\\PG\\MSF\\Tasks\\TaskProxy&#45;&gt;\\PG\\MSF\\Base\\Core</title>
<path fill="none" stroke="black" d="M399.72,-421.19C365.532,-406.691 315.246,-385.366 281.599,-371.097"/>
<polygon fill="none" stroke="black" points="282.725,-367.773 272.153,-367.091 279.992,-374.217 282.725,-367.773"/>
</g>
<!-- \\PG\\MSF\\HttpServer -->
<g id="node50" class="node"><title>\\PG\\MSF\\HttpServer</title>
<polygon fill="none" stroke="black" points="479.5,-212 396.5,-212 396.5,-176 479.5,-176 479.5,-212"/>
<text text-anchor="start" x="404.5" y="-197.1" font-family="Courier,monospace" font-size="11.00">«abstract»</text>
<text text-anchor="start" x="404.5" y="-184.1" font-family="Courier,monospace" font-size="11.00">HttpServer</text>
</g>
<!-- \\PG\\MSF\\Server -->
<g id="node54" class="node"><title>\\PG\\MSF\\Server</title>
<polygon fill="none" stroke="black" points="286.5,-213 203.5,-213 203.5,-177 286.5,-177 286.5,-213"/>
<text text-anchor="start" x="211.5" y="-198.1" font-family="Courier,monospace" font-size="11.00">«abstract»</text>
<text text-anchor="start" x="225" y="-185.1" font-family="Courier,monospace" font-size="11.00">Server</text>
</g>
<!-- \\PG\\MSF\\HttpServer&#45;&gt;\\PG\\MSF\\Server -->
<g id="edge16" class="edge"><title>\\PG\\MSF\\HttpServer&#45;&gt;\\PG\\MSF\\Server</title>
<path fill="none" stroke="black" d="M396.494,-194.212C367.471,-194.364 328.168,-194.57 297.006,-194.733"/>
<polygon fill="none" stroke="black" points="296.758,-191.234 286.777,-194.787 296.795,-198.234 296.758,-191.234"/>
</g>
<!-- \\PG\\MSF\\Marco -->
<g id="node51" class="node"><title>\\PG\\MSF\\Marco</title>
<polygon fill="none" stroke="black" points="976,-333 922,-333 922,-297 976,-297 976,-333"/>
<text text-anchor="middle" x="949" y="-311.6" font-family="Courier,monospace" font-size="11.00">Marco</text>
</g>
<!-- \\PG\\MSF\\MSFCli -->
<g id="node52" class="node"><title>\\PG\\MSF\\MSFCli</title>
<polygon fill="none" stroke="black" points="977.5,-212 920.5,-212 920.5,-176 977.5,-176 977.5,-212"/>
<text text-anchor="middle" x="949" y="-190.6" font-family="Courier,monospace" font-size="11.00">MSFCli</text>
</g>
<!-- \\PG\\MSF\\MSFServer -->
<g id="node53" class="node"><title>\\PG\\MSF\\MSFServer</title>
<polygon fill="none" stroke="black" points="716.5,-212 633.5,-212 633.5,-176 716.5,-176 716.5,-212"/>
<text text-anchor="start" x="641.5" y="-197.1" font-family="Courier,monospace" font-size="11.00">«abstract»</text>
<text text-anchor="start" x="644.5" y="-184.1" font-family="Courier,monospace" font-size="11.00">MSFServer</text>
</g>
<!-- \\PG\\MSF\\MSFCli&#45;&gt;\\PG\\MSF\\MSFServer -->
<g id="edge18" class="edge"><title>\\PG\\MSF\\MSFCli&#45;&gt;\\PG\\MSF\\MSFServer</title>
<path fill="none" stroke="black" d="M920.422,-194C875.159,-194 784.425,-194 727.143,-194"/>
<polygon fill="none" stroke="black" points="726.855,-190.5 716.854,-194 726.854,-197.5 726.855,-190.5"/>
</g>
<!-- \\PG\\MSF\\MSFServer&#45;&gt;\\PG\\MSF\\HttpServer -->
<g id="edge19" class="edge"><title>\\PG\\MSF\\MSFServer&#45;&gt;\\PG\\MSF\\HttpServer</title>
<path fill="none" stroke="black" d="M633.334,-194C593.528,-194 532.771,-194 489.805,-194"/>
<polygon fill="none" stroke="black" points="489.561,-190.5 479.561,-194 489.561,-197.5 489.561,-190.5"/>
</g>
<!-- \\PG\\MSF\\Server&#45;&gt;\\PG\\MSF\\Base\\Child -->
<g id="edge33" class="edge"><title>\\PG\\MSF\\Server&#45;&gt;\\PG\\MSF\\Base\\Child</title>
<path fill="none" stroke="black" d="M203.434,-203.476C190.986,-206.983 177.537,-211.732 166,-218 137.917,-233.258 110.707,-257.587 92.1143,-276.145"/>
<polygon fill="none" stroke="black" points="89.204,-274.113 84.6962,-283.701 94.1993,-279.017 89.204,-274.113"/>
</g>
</g>
</svg>
